# xmcd CD database file
#
# Track frame offsets:
#	150
#	4388
#	29918
#	59713
#	88724
#	101569
#	141873
#	167771
#	201737
#	222911
#	234675
#
# Disc length: 3334 seconds
#
# Revision: 0
# Processed by: cddbd v1.5.2PL0 Copyright (c) Steve Scherf et al.
# Submitted via: CDex 1.83
#
DISCID=ae0d040b
DTITLE=Rachel Therrien - Pensamiento
DYEAR=2016
DGENRE=Jazz
TTITLE0=Mapale 1
TTITLE1=A Ver
TTITLE2=Red Leaves
TTITLE3=Por Que Me Pegas
TTITLE4=Mapale 2 Prende la vela
TTITLE5=Flamenquillo
TTITLE6=To John
TTITLE7=Ravia
TTITLE8=La Guagua
TTITLE9=Mapale 3
TTITLE10=Pensamiento
EXTD=YEAR: 2016
EXTT0=
EXTT1=
EXTT2=
EXTT3=
EXTT4=
EXTT5=
EXTT6=
EXTT7=
EXTT8=
EXTT9=
EXTT10=
PLAYORDER=
